<svg width="3095" height="4102" viewBox="0 0 3095 4102" fill="none" xmlns="http://www.w3.org/2000/svg">
<path d="M880.095 2153.35L728.075 1630.57L482.349 1243.78L0 948.003L769.027 1070.87L890.532 1243.78L1096.66 579.416L1378.79 242.682L1269.58 893.398L1025.93 1712.94L1360.15 1608.53L1369.69 1598.72L1668.02 746.608L2240.19 0L1821.53 1196.52L2845.4 391.319L2072.45 1453.1L3094.95 893.398L2233.21 1709.52L1790.8 2305.34L1962.35 2434.9L2053.93 2864.84L2094.29 3054.28L2023.87 3735.11L1667.03 4101.46H804.148L554.645 3789.27L453.383 3084.05L531.703 2542.73L880.095 2153.35Z" fill="black"/>
</svg>
